<svg width="749" height="411" viewBox="0 0 749 411" fill="none" xmlns="http://www.w3.org/2000/svg">
<path d="M340.982 390.1L336.313 383.096L351.654 379.428L342.65 390.434L340.982 390.1Z" fill="#141414" stroke="#2B2C2E"/>
<path d="M342.983 391.101V388.433L351.988 377.427L360.659 375.425L351.988 396.103L349.653 397.104L342.983 391.101Z" fill="#141414" stroke="#2C2D2E"/>
<path d="M350.988 404.108V401.773L359.659 381.095L364.328 380.095L367.33 379.428L368.997 379.094L371.666 378.427L374.667 377.76L386.674 375.092L400.681 372.09L412.021 375.092L409.353 386.432L406.685 385.765V387.099L402.016 394.102H399.681L400.681 396.437L394.678 402.107L392.01 401.44V403.774L385.34 407.777L382.672 406.443L380.337 409.444L373.667 410.111L371.666 408.444L368.997 410.111L361.994 409.111L360.66 406.776L357.991 407.777L350.988 404.108Z" fill="#141414"/>
<path d="M360.66 406.776L357.991 407.777L350.988 404.108V401.773L359.659 381.095L364.328 380.095M360.66 406.776L364.328 380.095M360.66 406.776L361.994 409.111L368.997 410.111L371.666 408.444M364.328 380.095L367.33 379.428M371.666 408.444L367.33 379.428M371.666 408.444L373.667 410.111L380.337 409.444L382.672 406.443M367.33 379.428L368.997 379.094M382.672 406.443L368.997 379.094M382.672 406.443L385.34 407.777L392.01 403.774V401.44M368.997 379.094L371.666 378.427M392.01 401.44L371.666 378.427M392.01 401.44L394.678 402.107L400.681 396.437L399.681 394.102M371.666 378.427L374.667 377.76M399.681 394.102L374.667 377.76M399.681 394.102H402.016L406.685 387.099V385.765M374.667 377.76L386.674 375.092M406.685 385.765L386.674 375.092M406.685 385.765L409.353 386.432L412.021 375.092L400.681 372.09L386.674 375.092" stroke="#2B2C2E"/>
<path d="M217.581 343.074L345.318 371.757L404.35 358.75L507.74 296.049L504.405 289.712L394.011 355.081L479.725 259.362L474.389 254.692L389.342 347.744L441.37 231.68L435.367 228.678L380.67 344.075L397.68 217.339L391.343 216.672L371.665 342.407L351.654 216.672L344.984 217.339L362.661 343.408L306.63 228.678L300.96 231.68L354.323 347.744L267.942 254.359L263.94 258.695L349.653 355.081L237.592 290.045L234.257 295.381L336.646 357.082L219.916 330.067L217.581 343.074Z" fill="#141414" stroke="#2C2D2E"/>
<path d="M221.583 326.398L217.581 348.411L2.12933 315.392L15.47 263.03L45.82 215.004L64.1634 161.641L107.854 126.289L141.206 81.264L193.568 58.9184L237.925 26.2338L292.622 20.8976L346.318 1.88715L399.681 11.8926L455.378 9.55802L503.738 34.5717L558.768 48.9129L597.122 87.9343L647.15 118.618L671.83 166.644L710.185 209.001L721.524 265.365L745.871 316.727L527.751 348.411L522.415 326.398L512.743 304.386L501.403 284.375L488.396 267.033L470.053 251.357L451.376 237.35L429.364 226.344L407.685 220.007L384.673 216.672L361.326 216.338L338.314 219.34L315.968 225.343L294.623 235.682L275.613 249.023L257.269 265.699L242.928 284.375L230.922 304.386L221.583 326.398Z" fill="url(#paint0_linear_31_13)"/>
<path d="M221.583 326.399L217.581 348.411L2.12933 315.392L15.47 263.03M221.583 326.399L230.922 304.386M221.583 326.399L15.47 263.03M230.922 304.386L242.928 284.375M230.922 304.386L45.82 215.004M242.928 284.375L257.269 265.699M242.928 284.375L64.1634 161.641M257.269 265.699L275.613 249.023M257.269 265.699L107.854 126.289M275.613 249.023L294.623 235.682M275.613 249.023L141.206 81.264M294.623 235.682L315.968 225.343M294.623 235.682L193.568 58.9184M315.968 225.343L338.314 219.34M315.968 225.343L237.925 26.2338M338.314 219.34L361.326 216.338M338.314 219.34L292.622 20.8976M361.326 216.338L384.673 216.672M361.326 216.338L346.318 1.88715M384.673 216.672L407.685 220.007M384.673 216.672L399.681 11.8926M407.685 220.007L429.364 226.344M407.685 220.007L455.378 9.55802M429.364 226.344L451.376 237.35M429.364 226.344L503.738 34.5717M451.376 237.35L470.053 251.357M451.376 237.35L558.768 48.9129M470.053 251.357L488.396 267.033M470.053 251.357L597.123 87.9344M488.396 267.033L501.403 284.375M488.396 267.033L647.15 118.618M501.403 284.375L512.743 304.386M501.403 284.375L671.83 166.644M512.743 304.386L522.415 326.399M512.743 304.386L710.185 209.001M522.415 326.399L527.751 348.411L745.871 316.727L721.524 265.365M522.415 326.399L721.524 265.365M721.524 265.365L710.185 209.001M710.185 209.001L671.83 166.644M671.83 166.644L647.15 118.618M647.15 118.618L597.123 87.9344M597.123 87.9344L558.768 48.9129M558.768 48.9129L503.738 34.5717M503.738 34.5717L455.378 9.55802M455.378 9.55802L399.681 11.8926M399.681 11.8926L346.318 1.88715M346.318 1.88715L292.622 20.8976M292.622 20.8976L237.925 26.2338M237.925 26.2338L193.568 58.9184M193.568 58.9184L141.206 81.264M141.206 81.264L107.854 126.289M107.854 126.289L64.1634 161.641M64.1634 161.641L45.82 215.004M45.82 215.004L15.47 263.03" stroke="#1C1D1F" stroke-width="3"/>
<path d="M730.863 282.041L331.977 375.425L334.645 386.765L337.98 385.647L734.198 296.382L730.863 282.041Z" fill="#141414" stroke="#2C2D2E"/>
<circle cx="371.665" cy="371.423" r="3.33516" fill="#787878"/>
<defs>
<linearGradient id="paint0_linear_31_13" x1="61.4953" y1="219.673" x2="598.123" y2="87.6008" gradientUnits="userSpaceOnUse">
<stop stop-color="#0E2A60"/>
<stop offset="1" stop-color="#BDAB75"/>
</linearGradient>
</defs>
</svg>
