<svg width="844" height="969" viewBox="0 0 844 969" fill="none" xmlns="http://www.w3.org/2000/svg">
<path d="M698.242 536.774C576.05 554.23 503.607 536.774 483.533 525.427C529.791 556.848 586.523 654.02 604.852 699.988C600.663 702.781 585.36 718.316 578.668 725.299C621.261 712.032 772.139 721.808 840.509 727.917C760.211 615.326 713.952 530.664 704.352 504.48C699.988 512.335 698.242 528.046 698.242 536.774Z" fill="#9FD6E3" fill-opacity="0.14"/>
<path d="M697.369 596.997C603.805 585.127 551.611 564.325 537.646 555.975C571.22 576.05 622.308 634.527 655.475 673.804C663.155 669.614 696.787 659.839 712.207 655.475C708.716 647.794 700.86 612.998 697.369 596.997Z" fill="#DCE6F2" fill-opacity="0.95"/>
<path d="M701.733 435.528C579.541 418.072 507.098 435.528 487.024 446.875C533.282 415.454 590.014 318.282 608.343 272.314C604.154 269.521 588.851 253.986 582.159 247.003C624.752 260.27 775.63 250.494 844 244.385C763.702 356.976 717.444 441.638 707.843 467.822C703.479 459.967 701.733 444.256 701.733 435.528Z" fill="#9FD6E3" fill-opacity="0.14"/>
<path d="M700.86 375.305C607.296 387.175 555.102 407.977 541.138 416.327C574.711 396.252 625.799 337.775 658.966 298.498C666.647 302.688 700.279 312.463 715.698 316.827C712.207 324.508 704.352 359.304 700.86 375.305Z" fill="#DCE6F2" fill-opacity="0.95"/>
<path d="M144.012 533.282C266.205 550.738 338.647 533.282 358.722 521.936C312.463 553.357 255.731 650.529 237.402 696.496C241.592 699.289 256.895 714.825 263.586 721.808C220.994 708.541 70.1152 718.316 1.74564 724.426C82.0435 611.835 128.302 527.173 137.903 500.989C142.267 508.844 144.012 524.554 144.012 533.282Z" fill="#9FD6E3" fill-opacity="0.14"/>
<path d="M144.885 593.506C238.45 581.636 290.643 560.834 304.608 552.484C271.034 572.558 219.946 631.036 186.78 670.312C179.099 666.123 145.467 656.348 130.048 651.983C133.539 644.303 141.394 609.507 144.885 593.506Z" fill="#DCE6F2"/>
<path d="M142.267 435.545C264.459 418.089 336.902 435.545 356.976 446.891C310.718 415.47 253.986 318.298 235.657 272.331C239.846 269.538 255.149 254.002 261.841 247.019C219.248 260.286 68.3695 250.511 -3.05176e-05 244.401C80.2978 356.993 126.556 441.654 136.157 467.838C140.521 459.983 142.267 444.273 142.267 435.545Z" fill="#9FD6E3" fill-opacity="0.14"/>
<path d="M143.14 375.321C236.704 387.191 288.898 407.993 302.862 416.343C269.289 396.269 218.201 337.791 185.034 298.515C177.353 302.704 143.721 312.48 128.302 316.844C131.793 324.524 139.648 359.32 143.14 375.321Z" fill="#DCE6F2"/>
<path d="M328.496 750.958C403.781 653.142 424.204 581.479 424.195 558.42C428.808 614.15 485.524 711.332 516.537 749.895C521.029 747.621 542.082 741.935 551.452 739.542C518.956 770.106 453.277 906.29 424.978 968.827C366.424 843.543 315.451 761.633 297.372 740.398C306.358 740.461 320.896 746.666 328.496 750.958Z" fill="#9FD6E3" fill-opacity="0.14"/>
<path d="M381.365 779.811C417.037 692.503 424.589 636.827 424.185 620.561C425.156 659.667 450.954 732.907 468.845 781.1C461.42 785.727 436.37 810.206 424.988 821.486C420.017 814.669 393.581 790.719 381.365 779.811Z" fill="#DCE6F2" fill-opacity="0.95"/>
<path d="M326.751 217.869C402.036 315.685 422.458 387.348 422.449 410.407C427.062 354.677 483.778 257.495 514.791 218.932C519.283 221.206 540.336 226.892 549.707 229.285C517.211 198.721 451.531 62.5369 423.232 -5.22564e-05C364.678 125.284 313.705 207.194 295.627 228.429C304.612 228.366 319.151 222.161 326.751 217.869Z" fill="#9FD6E3" fill-opacity="0.14"/>
<path d="M379.619 189.016C415.292 276.324 422.844 332 422.44 348.266C423.41 309.16 449.208 235.92 467.099 187.727C459.674 183.1 434.625 158.621 423.243 147.341C418.271 154.158 391.836 178.108 379.619 189.016Z" fill="#DCE6F2" fill-opacity="0.95"/>
<path d="M443.125 399.723C453.206 382.972 484.78 367.746 499.307 362.227C505.013 393.369 496.336 420.201 491.284 429.724C479.88 450.365 439.887 471.118 438.689 471.416C437.491 471.714 432.402 471.707 431.654 471.257C431.056 470.897 429.614 467.313 428.967 465.565C426.363 442.81 437.321 412.189 443.125 399.723Z" fill="#9FD6E3" fill-opacity="0.14"/>
<path d="M443.125 575.617C453.206 592.368 484.78 607.594 499.307 613.113C505.013 581.971 496.336 555.139 491.284 545.616C479.88 524.975 439.887 504.222 438.689 503.924C437.491 503.626 432.402 503.633 431.654 504.083C431.056 504.443 429.614 508.028 428.967 509.775C426.363 532.53 437.321 563.151 443.125 575.617Z" fill="#9FD6E3" fill-opacity="0.14"/>
<path d="M353.269 426.842C343.562 409.871 345.671 374.881 347.939 359.507C377.909 369.716 397.1 390.379 402.949 399.434C415.406 419.457 414.015 464.493 413.691 465.684C413.366 466.875 410.878 471.315 410.12 471.748C409.514 472.095 405.682 471.605 403.841 471.317C382.706 462.491 361.32 437.989 353.269 426.842Z" fill="#9FD6E3" fill-opacity="0.14"/>
<path d="M336.899 518.195C317.349 518.002 288.213 498.512 276.089 488.792C300.035 468.079 327.561 461.95 338.33 461.474C361.904 460.833 400.073 484.776 400.937 485.657C401.801 486.539 404.376 490.928 404.368 491.801C404.361 492.499 402.003 495.56 400.825 497.003C382.534 510.789 350.586 516.875 336.899 518.195Z" fill="#9FD6E3" fill-opacity="0.14"/>
<path d="M505.908 518.195C525.458 518.002 554.594 498.512 566.718 488.792C542.772 468.079 515.247 461.95 504.477 461.474C480.904 460.833 442.734 484.776 441.87 485.657C441.006 486.539 438.431 490.928 438.439 491.801C438.446 492.499 440.804 495.56 441.982 497.003C460.273 510.789 492.221 516.875 505.908 518.195Z" fill="#9FD6E3" fill-opacity="0.14"/>
<path d="M355.014 548.854C345.308 565.825 347.417 600.815 349.685 616.188C379.654 605.98 398.845 585.317 404.694 576.261C417.151 556.238 415.761 511.202 415.436 510.011C415.112 508.82 412.624 504.381 411.866 503.948C411.26 503.601 407.427 504.09 405.587 504.378C384.452 513.204 363.065 537.706 355.014 548.854Z" fill="#9FD6E3" fill-opacity="0.14"/>
<circle cx="421.563" cy="487.897" r="23.5657" fill="#9FD6E3" fill-opacity="0.14"/>
</svg>
